<svg width="16" height="16" viewBox="0 0 16 16" fill="none" xmlns="http://www.w3.org/2000/svg">
<g clip-path="url(#clip0_2846_2845)">
<path d="M14.7319 16C14.4074 16 14.0832 15.8765 13.8356 15.6289L0.371378 2.16466C-0.123793 1.66949 -0.123793 0.866549 0.371378 0.371378C0.86655 -0.123793 1.66883 -0.123793 2.164 0.371378L15.6283 13.8357C16.1235 14.3309 16.1235 15.1338 15.6283 15.629C15.3807 15.8766 15.0565 16 14.7319 16Z" fill="#8c3839"/>
<path d="M1.26769 16C0.943208 16 0.619011 15.8765 0.371378 15.6289C-0.123793 15.1337 -0.123793 14.3308 0.371378 13.8356L13.8356 0.371378C14.3308 -0.123793 15.133 -0.123793 15.6282 0.371378C16.1234 0.866549 16.1234 1.66949 15.6282 2.16466L2.164 15.629C1.91637 15.8766 1.59217 16 1.26769 16Z" fill="#8c3839"/>
</g>
<defs>
<clipPath id="clip0_2846_2845">
<rect width="16" height="16" fill="white"/>
</clipPath>
</defs>
</svg>
