<?xml version="1.0" standalone="no"?>
<!DOCTYPE svg PUBLIC "-//W3C//DTD SVG 20010904//EN"
 "http://www.w3.org/TR/2001/REC-SVG-20010904/DTD/svg10.dtd">
<svg version="1.0" xmlns="http://www.w3.org/2000/svg"
 width="833.000000pt" height="563.000000pt" viewBox="0 0 833.000000 563.000000"
 preserveAspectRatio="xMidYMid meet">

<g transform="translate(0.000000,563.000000) scale(0.100000,-0.100000)"
fill="#000000" stroke="none">
<path d="M2940 5344 c-261 -151 -554 -320 -651 -376 l-176 -101 -90 -156 c-50
-86 -193 -334 -318 -551 -125 -217 -234 -404 -241 -415 -8 -11 -14 -23 -14
-27 0 -5 96 -8 213 -8 l214 0 200 348 c110 191 224 388 252 439 29 51 64 101
79 111 29 21 258 154 780 456 l323 186 656 0 655 0 252 -144 c138 -80 391
-225 561 -324 l310 -179 232 -404 c128 -222 243 -422 256 -444 l22 -40 219 -3
218 -2 -20 32 c-11 18 -73 125 -137 238 -318 553 -508 876 -523 888 -9 8 -305
180 -656 383 l-639 369 -751 0 -751 0 -475 -276z"/>
<path d="M3190 4624 c-234 -134 -448 -258 -476 -274 -55 -31 -45 -16 -381
-598 l-25 -42 217 2 217 3 97 168 96 168 95 55 c52 31 226 132 387 225 l292
169 458 0 458 0 75 -43 c41 -24 206 -120 365 -212 160 -92 301 -176 315 -186
14 -9 68 -92 120 -183 l95 -166 213 0 c116 0 212 2 212 5 0 3 -59 108 -132
233 -72 125 -149 258 -171 295 -24 42 -54 78 -76 92 -20 13 -236 139 -480 279
l-443 256 -552 0 -551 0 -425 -246z"/>
<path d="M169 3560 c-61 -11 -104 -45 -130 -103 l-24 -52 0 -525 0 -525 24
-48 c34 -70 84 -100 166 -101 56 -1 67 2 102 30 21 16 48 50 61 74 20 41 22
57 22 227 l0 183 -55 0 -55 0 0 -147 c-1 -212 -15 -256 -81 -256 -21 0 -38 7
-51 23 -18 22 -18 48 -16 545 3 498 4 524 22 544 12 13 31 21 52 21 56 0 68
-31 73 -182 l3 -128 55 0 54 0 -3 158 c-3 146 -5 159 -26 188 -43 57 -121 87
-193 74z"/>
<path d="M1567 3560 c-53 -10 -88 -38 -117 -96 l-25 -49 -3 -513 c-3 -579 -2
-594 63 -650 35 -31 89 -52 135 -52 40 0 113 42 137 79 36 54 43 96 43 274 l0
167 -60 0 -60 0 0 -174 c0 -159 -2 -175 -20 -199 -26 -32 -50 -40 -83 -28 -46
18 -48 51 -45 584 3 452 4 495 21 520 13 20 26 27 50 27 66 0 77 -27 77 -184
l0 -126 60 0 60 0 0 139 c0 150 -6 180 -48 224 -48 51 -110 70 -185 57z"/>
<path d="M4100 3566 c0 -2 8 -10 18 -17 15 -13 16 -12 3 4 -13 16 -21 21 -21
13z"/>
<path d="M5980 3564 c0 -13 78 -89 85 -83 2 3 -16 25 -40 49 -25 24 -45 40
-45 34z"/>
<path d="M4730 3549 c0 -6 29 -41 65 -78 81 -83 89 -58 9 28 -55 60 -74 72
-74 50z"/>
<path d="M5250 3547 c-58 -31 -80 -51 -102 -95 -20 -43 -22 -60 -22 -197 2
-189 13 -223 120 -350 130 -156 128 -151 132 -357 l4 -177 -26 -26 c-31 -31
-47 -31 -83 -1 l-28 24 -3 172 -4 171 -56 -3 -57 -3 -3 -155 c-3 -181 8 -246
46 -282 111 -104 281 -72 320 59 7 24 12 103 12 195 0 228 -15 273 -146 438
-100 127 -108 149 -109 306 0 116 2 134 19 153 23 26 78 28 97 5 10 -12 16
-58 19 -148 l5 -131 55 0 55 0 0 145 c0 143 0 146 -29 187 -47 71 -151 104
-216 70z"/>
<path d="M7135 3548 c-16 -6 -40 -20 -52 -31 -47 -42 -48 -58 -46 -633 1 -526
2 -543 22 -582 26 -51 65 -79 130 -94 87 -20 166 18 202 96 17 38 19 77 19
578 0 356 -4 546 -11 565 -33 89 -160 137 -264 101z m131 -119 c18 -20 19 -46
22 -540 2 -360 -1 -526 -8 -540 -17 -31 -56 -42 -91 -24 l-29 16 0 539 c0 476
2 540 16 554 22 23 67 20 90 -5z"/>
<path d="M7231 3394 c13 -14 25 -20 27 -14 7 20 -7 40 -29 40 l-22 0 24 -26z"/>
<path d="M7180 3387 c0 -7 18 -31 40 -52 32 -31 40 -35 40 -20 0 10 -16 34
-36 52 -41 37 -44 38 -44 20z"/>
<path d="M7180 3314 c0 -11 18 -38 40 -59 34 -33 40 -36 40 -19 0 11 -18 38
-40 59 -34 33 -40 36 -40 19z"/>
<path d="M7180 3237 c0 -7 18 -31 40 -52 34 -33 40 -36 40 -19 0 11 -15 34
-33 52 -36 35 -47 39 -47 19z"/>
<path d="M7180 3167 c0 -7 18 -31 40 -52 48 -47 53 -30 8 25 -34 41 -48 49
-48 27z"/>
<path d="M7180 3094 c0 -11 18 -38 40 -59 34 -33 40 -36 40 -19 0 11 -18 38
-40 59 -34 33 -40 36 -40 19z"/>
<path d="M7180 3017 c0 -7 18 -31 40 -52 34 -33 40 -36 40 -19 0 11 -15 34
-33 52 -36 35 -47 39 -47 19z"/>
<path d="M7180 2944 c0 -11 18 -38 40 -59 34 -33 40 -36 40 -19 0 11 -18 38
-40 59 -34 33 -40 36 -40 19z"/>
<path d="M7180 2874 c0 -11 18 -38 40 -59 34 -33 40 -36 40 -19 0 11 -18 38
-40 59 -34 33 -40 36 -40 19z"/>
<path d="M7180 2797 c0 -7 18 -31 40 -52 34 -33 40 -36 40 -19 0 11 -15 34
-33 52 -36 35 -47 39 -47 19z"/>
<path d="M7180 2724 c0 -11 18 -38 40 -59 34 -33 40 -36 40 -19 0 11 -18 38
-40 59 -34 33 -40 36 -40 19z"/>
<path d="M7180 2654 c0 -11 18 -38 40 -59 34 -33 40 -36 40 -19 0 11 -18 38
-40 59 -34 33 -40 36 -40 19z"/>
<path d="M7180 2577 c0 -7 18 -31 40 -52 34 -33 40 -36 40 -19 0 11 -15 34
-33 52 -36 35 -47 39 -47 19z"/>
<path d="M7180 2504 c0 -11 18 -38 40 -59 34 -33 40 -36 40 -19 0 11 -18 38
-40 59 -34 33 -40 36 -40 19z"/>
<path d="M7180 2427 c0 -7 15 -28 34 -46 46 -45 60 -22 15 25 -35 36 -49 42
-49 21z"/>
<path d="M7180 2366 c0 -2 8 -10 18 -17 15 -13 16 -12 3 4 -13 16 -21 21 -21
13z"/>
<path d="M700 3534 c0 -8 32 -183 70 -388 l70 -372 0 -283 0 -282 58 3 57 3 5
320 6 320 67 337 c37 185 67 342 67 348 0 7 -20 10 -57 8 l-57 -3 -42 -247
c-22 -137 -44 -251 -47 -255 -4 -3 -7 -2 -7 4 0 8 -56 359 -75 471 -6 32 -7
32 -60 32 -43 0 -55 -3 -55 -16z"/>
<path d="M2142 2883 l3 -668 135 0 135 0 0 55 0 55 -77 3 -78 3 0 609 0 610
-60 0 -60 0 2 -667z"/>
<path d="M2712 2883 l3 -668 130 0 130 0 0 55 0 55 -75 5 -75 5 0 245 0 245
78 3 77 3 0 54 0 55 -74 0 c-58 0 -75 3 -80 16 -8 21 -8 277 0 392 l7 92 73 0
74 0 0 55 0 55 -135 0 -135 0 2 -667z"/>
<path d="M3782 2883 l3 -668 60 0 60 0 3 302 2 302 78 3 77 3 3 53 3 52 -80 0
-81 0 0 255 0 255 80 0 80 0 0 55 0 55 -145 0 -145 0 2 -667z"/>
<path d="M4487 3358 c-10 -106 -24 -265 -32 -353 -20 -225 -65 -724 -68 -760
-2 -30 -2 -30 53 -30 l55 0 15 165 15 165 76 3 76 3 6 -63 c4 -35 9 -108 13
-163 4 -55 12 -103 18 -107 14 -10 94 -10 99 0 2 4 -2 77 -9 162 -16 188 -94
1153 -94 1163 0 4 -47 7 -103 7 l-104 0 -16 -192z m133 -40 c0 -18 11 -172 25
-343 14 -170 25 -313 25 -317 0 -5 -29 -8 -65 -8 l-65 0 0 43 c0 23 9 132 19
242 11 110 23 245 26 300 4 55 9 103 12 108 10 18 23 4 23 -25z"/>
<path d="M4601 3084 c0 -11 3 -14 6 -6 3 7 2 16 -1 19 -3 4 -6 -2 -5 -13z"/>
<path d="M4596 3031 c-5 -8 -2 -20 8 -29 17 -17 19 -9 7 22 -6 15 -10 16 -15
7z"/>
<path d="M4590 2952 c0 -11 7 -25 15 -32 12 -10 15 -9 15 8 0 11 -7 25 -15 32
-12 10 -15 9 -15 -8z"/>
<path d="M4580 2887 c0 -8 11 -24 25 -37 24 -23 25 -23 25 -3 0 11 -8 27 -18
36 -22 20 -32 21 -32 4z"/>
<path d="M4580 2818 c0 -8 11 -25 25 -38 18 -17 25 -20 25 -8 0 8 -11 25 -25
38 -18 17 -25 20 -25 8z"/>
<path d="M4570 2754 c0 -19 47 -74 63 -74 17 0 4 29 -28 60 -30 30 -35 31 -35
14z"/>
<path d="M5832 2883 l3 -668 55 0 55 0 3 308 2 307 70 0 70 0 2 -307 3 -308
58 -3 57 -3 0 671 0 670 -60 0 -60 0 0 -305 0 -305 -70 0 -70 0 0 305 0 305
-60 0 -60 0 2 -667z"/>
<path d="M6240 3534 c0 -11 26 -46 60 -79 47 -46 60 -55 60 -39 0 11 -26 46
-60 79 -47 46 -60 55 -60 39z"/>
<path d="M6572 2883 l3 -668 55 0 55 0 3 668 2 667 -60 0 -60 0 2 -667z"/>
<path d="M7762 2883 l3 -668 55 0 55 0 5 510 5 510 29 -300 c16 -165 38 -394
50 -510 l21 -210 86 -3 c64 -2 89 1 98 11 8 11 10 183 9 668 l-3 654 -57 3
-58 3 -2 -503 -3 -503 -43 450 c-24 248 -46 474 -49 503 l-6 52 -98 0 -99 0 2
-667z"/>
<path d="M1127 3527 c-5 -13 98 -127 116 -127 20 0 1 32 -52 84 -42 41 -60 54
-64 43z"/>
<path d="M2290 3524 c0 -11 26 -46 60 -79 47 -46 60 -55 60 -39 0 11 -26 46
-60 79 -47 46 -60 55 -60 39z"/>
<path d="M6710 3524 c0 -18 106 -134 123 -134 21 0 0 33 -58 90 -50 50 -65 60
-65 44z"/>
<path d="M840 3518 c0 -7 23 -36 50 -63 41 -40 50 -45 50 -29 0 18 -34 57 -82
93 -15 11 -18 11 -18 -1z"/>
<path d="M3010 3514 c0 -18 96 -124 113 -124 20 0 1 32 -53 85 -47 46 -60 55
-60 39z"/>
<path d="M4090 3515 c0 -27 115 -142 125 -125 5 8 -17 37 -59 79 -51 51 -66
61 -66 46z"/>
<path d="M7990 3513 c0 -11 9 -28 20 -38 19 -18 20 -17 20 2 0 11 -9 28 -20
38 -19 18 -20 17 -20 -2z"/>
<path d="M8200 3517 c0 -7 27 -39 60 -72 47 -46 60 -55 60 -39 0 11 -24 43
-53 72 -54 54 -67 61 -67 39z"/>
<path d="M5980 3505 c0 -12 20 -41 45 -65 61 -60 61 -26 0 38 -36 38 -45 43
-45 27z"/>
<path d="M1115 3469 c-7 -11 101 -129 117 -129 22 0 2 32 -51 83 -38 36 -62
53 -66 46z"/>
<path d="M4740 3470 c0 -15 101 -130 114 -130 19 0 -1 33 -54 85 -33 33 -60
53 -60 45z"/>
<path d="M6240 3464 c0 -11 26 -46 60 -79 47 -46 60 -55 60 -39 0 11 -26 46
-60 79 -47 46 -60 55 -60 39z"/>
<path d="M2290 3454 c0 -11 26 -46 60 -79 47 -46 60 -55 60 -39 0 11 -26 46
-60 79 -47 46 -60 55 -60 39z"/>
<path d="M3010 3444 c0 -11 26 -46 60 -79 47 -46 60 -55 60 -39 0 11 -26 46
-60 79 -47 46 -60 55 -60 39z"/>
<path d="M6710 3447 c0 -13 110 -127 123 -127 20 0 1 32 -51 83 -59 59 -72 66
-72 44z"/>
<path d="M8200 3447 c0 -7 27 -39 60 -72 76 -75 79 -50 4 28 -59 61 -64 64
-64 44z"/>
<path d="M850 3437 c0 -18 56 -87 71 -87 20 0 7 28 -31 65 -28 28 -40 34 -40
22z"/>
<path d="M4090 3437 c0 -13 110 -127 123 -127 18 0 2 26 -50 81 -56 59 -73 70
-73 46z"/>
<path d="M5517 3428 c5 -25 109 -136 119 -126 10 10 -12 40 -69 96 -45 45 -54
50 -50 30z"/>
<path d="M7430 3436 c0 -17 105 -136 121 -136 19 0 -8 43 -62 96 -42 41 -59
53 -59 40z"/>
<path d="M5980 3424 c0 -13 18 -38 42 -60 59 -53 63 -24 4 35 -39 39 -46 43
-46 25z"/>
<path d="M8002 3415 c12 -27 28 -34 28 -12 0 14 -20 37 -32 37 -4 0 -2 -11 4
-25z"/>
<path d="M180 3422 c0 -4 16 -23 35 -42 23 -22 35 -29 35 -19 0 8 -13 27 -28
42 -29 27 -42 33 -42 19z"/>
<path d="M420 3415 c0 -12 25 -46 60 -80 81 -81 82 -45 0 38 -47 49 -60 58
-60 42z"/>
<path d="M1586 3422 c-3 -5 10 -24 29 -42 31 -30 35 -31 35 -14 0 11 -10 30
-23 42 -25 24 -33 26 -41 14z"/>
<path d="M1100 3405 c0 -23 110 -129 122 -117 4 4 -21 37 -57 72 -48 48 -65
59 -65 45z"/>
<path d="M1827 3403 c7 -20 103 -123 115 -123 19 0 4 26 -49 81 -57 60 -77 73
-66 42z"/>
<path d="M5310 3411 c0 -5 9 -19 20 -32 l19 -24 1 22 c0 12 -9 27 -20 33 -11
6 -20 7 -20 1z"/>
<path d="M2935 3350 c33 -34 68 -60 79 -60 16 0 7 13 -39 60 -33 34 -68 60
-79 60 -16 0 -7 -13 39 -60z"/>
<path d="M3010 3350 c84 -78 112 -78 35 0 -35 35 -68 60 -80 60 -15 -1 -5 -15
45 -60z"/>
<path d="M4015 3350 c33 -34 68 -60 79 -60 16 0 7 13 -39 60 -33 34 -68 60
-79 60 -16 0 -7 -13 39 -60z"/>
<path d="M4040 3406 c0 -2 26 -29 58 -60 77 -75 102 -72 27 4 -50 50 -85 74
-85 56z"/>
<path d="M4750 3384 c0 -11 26 -46 60 -79 47 -46 60 -55 60 -39 0 11 -26 46
-60 79 -47 46 -60 55 -60 39z"/>
<path d="M6240 3389 c0 -8 27 -41 60 -74 34 -33 60 -53 60 -44 0 8 -27 41 -60
74 -34 33 -60 53 -60 44z"/>
<path d="M160 3374 c0 -18 67 -94 83 -94 19 0 3 30 -38 70 -37 36 -45 41 -45
24z"/>
<path d="M1565 3380 c-5 -8 10 -30 39 -58 38 -38 46 -43 46 -26 0 26 -75 100
-85 84z"/>
<path d="M2290 3374 c0 -12 24 -43 57 -74 79 -75 83 -45 4 34 -48 48 -61 57
-61 40z"/>
<path d="M2850 3377 c0 -7 27 -39 60 -72 47 -46 60 -55 60 -39 0 11 -24 43
-53 72 -54 54 -67 61 -67 39z"/>
<path d="M3930 3377 c0 -7 29 -42 65 -77 50 -50 65 -60 65 -44 0 11 -26 45
-58 77 -59 59 -72 66 -72 44z"/>
<path d="M5270 3377 c0 -13 70 -87 83 -87 18 0 4 29 -31 63 -40 39 -52 45 -52
24z"/>
<path d="M6710 3378 c0 -15 99 -119 121 -126 23 -9 4 19 -56 78 -41 40 -65 58
-65 48z"/>
<path d="M8200 3374 c0 -11 26 -46 60 -79 47 -46 60 -55 60 -39 0 11 -26 46
-60 79 -47 46 -60 55 -60 39z"/>
<path d="M5980 3354 c0 -18 67 -94 83 -94 19 0 3 30 -38 70 -37 36 -45 41 -45
24z"/>
<path d="M8000 3358 c0 -8 7 -23 15 -34 14 -19 14 -19 15 2 0 12 -7 27 -15 34
-12 10 -15 10 -15 -2z"/>
<path d="M870 3343 c0 -18 28 -53 43 -53 16 0 5 28 -18 50 -24 23 -25 23 -25
3z"/>
<path d="M5530 3344 c0 -11 26 -46 60 -79 47 -46 60 -55 60 -39 0 11 -26 46
-60 79 -47 46 -60 55 -60 39z"/>
<path d="M7440 3347 c0 -7 27 -39 60 -72 47 -46 60 -55 60 -39 0 11 -24 43
-53 72 -54 54 -67 61 -67 39z"/>
<path d="M420 3334 c0 -18 96 -124 113 -124 20 0 1 32 -53 85 -47 46 -60 55
-60 39z"/>
<path d="M1090 3337 c0 -7 27 -39 60 -72 47 -46 60 -55 60 -39 0 11 -24 43
-53 72 -54 54 -67 61 -67 39z"/>
<path d="M1830 3334 c0 -11 26 -46 60 -79 47 -46 60 -55 60 -39 0 11 -26 46
-60 79 -47 46 -60 55 -60 39z"/>
<path d="M6240 3314 c0 -11 26 -46 60 -79 47 -46 60 -55 60 -39 0 11 -26 46
-60 79 -47 46 -60 55 -60 39z"/>
<path d="M160 3304 c0 -11 20 -40 45 -64 37 -36 45 -41 45 -24 0 11 -20 40
-45 64 -37 36 -45 41 -45 24z"/>
<path d="M1560 3309 c0 -8 20 -35 45 -59 27 -27 45 -38 45 -29 0 8 -20 35 -45
59 -27 27 -45 38 -45 29z"/>
<path d="M2290 3304 c0 -11 26 -46 60 -79 47 -46 60 -55 60 -39 0 11 -26 46
-60 79 -47 46 -60 55 -60 39z"/>
<path d="M2850 3303 c0 -24 112 -130 119 -111 2 5 -24 38 -58 72 -50 50 -61
57 -61 39z"/>
<path d="M4760 3305 c0 -12 25 -46 60 -80 81 -81 82 -45 0 38 -47 49 -60 58
-60 42z"/>
<path d="M5270 3307 c0 -13 70 -87 83 -87 16 0 5 22 -29 60 -37 41 -54 50 -54
27z"/>
<path d="M3930 3299 c0 -16 124 -129 129 -117 3 10 -107 128 -121 128 -4 0 -8
-5 -8 -11z"/>
<path d="M6710 3297 c0 -13 110 -127 123 -127 20 0 1 32 -51 83 -59 59 -72 66
-72 44z"/>
<path d="M8200 3297 c0 -7 27 -39 60 -72 47 -46 60 -55 60 -39 0 11 -24 43
-53 72 -54 54 -67 61 -67 39z"/>
<path d="M5980 3285 c0 -12 20 -41 45 -65 61 -60 61 -26 0 38 -36 38 -45 43
-45 27z"/>
<path d="M1080 3277 c0 -7 27 -39 60 -72 48 -48 60 -55 60 -39 0 12 -23 42
-54 73 -58 54 -66 59 -66 38z"/>
<path d="M5530 3274 c0 -11 26 -46 60 -79 47 -46 60 -55 60 -39 0 11 -26 46
-60 79 -47 46 -60 55 -60 39z"/>
<path d="M7440 3274 c0 -11 26 -46 60 -79 47 -46 60 -55 60 -39 0 11 -26 46
-60 79 -47 46 -60 55 -60 39z"/>
<path d="M8010 3271 c0 -11 5 -23 10 -26 6 -3 10 3 10 14 0 11 -4 23 -10 26
-5 3 -10 -3 -10 -14z"/>
<path d="M420 3264 c0 -11 26 -46 60 -79 47 -46 60 -55 60 -39 0 11 -26 46
-60 79 -47 46 -60 55 -60 39z"/>
<path d="M880 3263 c0 -14 19 -38 25 -32 8 8 -5 39 -16 39 -5 0 -9 -3 -9 -7z"/>
<path d="M1830 3260 c0 -23 112 -138 118 -121 2 7 -22 40 -57 75 -33 33 -61
54 -61 46z"/>
<path d="M6240 3244 c0 -11 26 -46 60 -79 47 -46 60 -55 60 -39 0 11 -26 46
-60 79 -47 46 -60 55 -60 39z"/>
<path d="M160 3232 c0 -10 20 -38 45 -62 29 -29 45 -39 45 -28 0 9 -20 36 -45
61 -32 33 -45 41 -45 29z"/>
<path d="M1560 3234 c0 -11 20 -40 45 -64 37 -36 45 -41 45 -24 0 11 -20 40
-45 64 -37 36 -45 41 -45 24z"/>
<path d="M2290 3234 c0 -11 26 -46 60 -79 47 -46 60 -55 60 -39 0 11 -26 46
-60 79 -47 46 -60 55 -60 39z"/>
<path d="M2850 3234 c0 -11 26 -46 60 -79 47 -46 60 -55 60 -39 0 11 -26 46
-60 79 -47 46 -60 55 -60 39z"/>
<path d="M5270 3234 c0 -18 67 -94 83 -94 19 0 3 30 -38 70 -37 36 -45 41 -45
24z"/>
<path d="M3930 3229 c0 -13 109 -129 122 -129 21 0 3 30 -50 83 -58 57 -72 66
-72 46z"/>
<path d="M4760 3224 c0 -11 26 -46 60 -79 47 -46 60 -55 60 -39 0 11 -26 46
-60 79 -47 46 -60 55 -60 39z"/>
<path d="M6710 3227 c0 -13 110 -127 123 -127 18 0 2 26 -50 81 -56 59 -73 70
-73 46z"/>
<path d="M8200 3229 c0 -8 27 -41 60 -74 34 -33 60 -53 60 -44 0 8 -27 41 -60
74 -34 33 -60 53 -60 44z"/>
<path d="M1067 3217 c-5 -13 98 -127 116 -127 20 0 1 32 -52 84 -42 41 -60 54
-64 43z"/>
<path d="M5980 3209 c0 -8 20 -35 45 -59 27 -27 45 -38 45 -29 0 8 -20 35 -45
59 -27 27 -45 38 -45 29z"/>
<path d="M7440 3204 c0 -11 26 -46 60 -79 47 -46 60 -55 60 -39 0 11 -26 46
-60 79 -47 46 -60 55 -60 39z"/>
<path d="M5530 3194 c0 -18 96 -124 113 -124 20 0 1 32 -53 85 -47 46 -60 55
-60 39z"/>
<path d="M420 3189 c0 -8 27 -41 60 -74 40 -40 60 -54 60 -42 0 15 -39 59 -98
111 -17 15 -22 16 -22 5z"/>
<path d="M1830 3184 c0 -11 26 -46 60 -79 47 -46 60 -55 60 -39 0 11 -26 46
-60 79 -47 46 -60 55 -60 39z"/>
<path d="M8021 3184 c0 -11 3 -14 6 -6 3 7 2 16 -1 19 -3 4 -6 -2 -5 -13z"/>
<path d="M1560 3165 c0 -12 26 -46 60 -80 46 -45 60 -55 60 -40 -1 11 -28 47
-60 80 -47 47 -60 56 -60 40z"/>
<path d="M5270 3166 c0 -10 30 -48 66 -85 51 -51 64 -60 59 -41 -9 34 -125
151 -125 126z"/>
<path d="M6240 3169 c0 -8 27 -41 60 -74 34 -33 60 -53 60 -44 0 8 -27 41 -60
74 -34 33 -60 53 -60 44z"/>
<path d="M160 3154 c0 -18 96 -124 113 -124 20 0 1 32 -53 85 -47 46 -60 55
-60 39z"/>
<path d="M1055 3160 c-7 -12 100 -130 117 -130 21 0 2 31 -51 84 -39 39 -61
54 -66 46z"/>
<path d="M2290 3154 c0 -18 96 -124 113 -124 20 0 1 32 -53 85 -47 46 -60 55
-60 39z"/>
<path d="M2850 3157 c0 -7 27 -39 60 -72 47 -46 60 -55 60 -39 0 11 -24 43
-53 72 -54 54 -67 61 -67 39z"/>
<path d="M3935 3160 c-5 -8 17 -37 59 -79 51 -51 66 -61 66 -46 0 27 -115 142
-125 125z"/>
<path d="M6710 3157 c0 -27 111 -140 124 -127 7 7 -10 31 -57 78 -47 47 -67
61 -67 49z"/>
<path d="M8200 3154 c0 -11 26 -46 60 -79 47 -46 60 -55 60 -39 0 11 -26 46
-60 79 -47 46 -60 55 -60 39z"/>
<path d="M4770 3144 c0 -11 26 -46 60 -79 47 -46 60 -55 60 -39 0 11 -26 46
-60 79 -47 46 -60 55 -60 39z"/>
<path d="M5980 3134 c0 -18 67 -94 83 -94 19 0 3 30 -38 70 -37 36 -45 41 -45
24z"/>
<path d="M5527 3127 c-5 -13 98 -127 116 -127 20 0 1 32 -52 84 -42 41 -60 54
-64 43z"/>
<path d="M7440 3127 c0 -7 27 -39 60 -72 47 -46 60 -55 60 -39 0 11 -24 43
-53 72 -54 54 -67 61 -67 39z"/>
<path d="M415 3120 c-7 -12 100 -130 117 -130 21 0 2 31 -51 84 -39 39 -61 54
-66 46z"/>
<path d="M1825 3121 c-5 -9 13 -34 51 -72 32 -32 62 -59 66 -59 20 0 3 27 -50
82 -41 43 -61 57 -67 49z"/>
<path d="M270 3112 c0 -14 118 -124 129 -121 6 2 -16 32 -50 67 -57 58 -79 73
-79 54z"/>
<path d="M340 3113 c0 -13 114 -123 127 -123 24 0 13 17 -46 73 -55 52 -81 68
-81 50z"/>
<path d="M1676 3113 c-11 -11 106 -123 128 -123 16 0 9 12 -34 56 -59 60 -84
77 -94 67z"/>
<path d="M1750 3114 c0 -4 23 -33 51 -65 32 -37 59 -59 72 -59 17 0 9 12 -43
65 -59 60 -80 75 -80 59z"/>
<path d="M5380 3112 c0 -13 116 -122 129 -122 20 0 11 14 -46 72 -53 53 -83
71 -83 50z"/>
<path d="M5510 3055 c83 -84 109 -84 33 0 -33 37 -66 64 -78 65 -15 0 -4 -16
45 -65z"/>
<path d="M1040 3099 c0 -23 116 -133 125 -119 5 8 -7 26 -31 48 -21 20 -51 47
-66 61 -20 17 -28 20 -28 10z"/>
<path d="M6240 3094 c0 -11 26 -46 60 -79 47 -46 60 -55 60 -39 0 11 -26 46
-60 79 -47 46 -60 55 -60 39z"/>
<path d="M160 3084 c0 -18 96 -124 113 -124 20 0 1 32 -53 85 -47 46 -60 55
-60 39z"/>
<path d="M1560 3084 c0 -11 26 -46 60 -79 47 -46 60 -55 60 -39 0 11 -26 46
-60 79 -47 46 -60 55 -60 39z"/>
<path d="M2290 3084 c0 -11 26 -46 60 -79 47 -46 60 -55 60 -39 0 11 -26 46
-60 79 -47 46 -60 55 -60 39z"/>
<path d="M2850 3084 c0 -21 88 -114 108 -114 22 0 12 15 -48 75 -47 47 -60 55
-60 39z"/>
<path d="M3930 3079 c0 -12 110 -119 122 -119 18 0 5 19 -50 73 -58 57 -72 66
-72 46z"/>
<path d="M6710 3077 c0 -13 110 -127 123 -127 20 0 1 32 -51 83 -59 59 -72 66
-72 44z"/>
<path d="M8200 3077 c0 -7 27 -39 60 -72 47 -46 60 -55 60 -39 0 11 -24 43
-53 72 -54 54 -67 61 -67 39z"/>
<path d="M4770 3069 c0 -6 29 -41 65 -78 45 -46 65 -61 65 -48 0 10 -25 45
-57 78 -55 58 -73 70 -73 48z"/>
<path d="M5980 3065 c0 -26 75 -102 84 -86 4 6 -13 32 -38 58 -37 39 -46 44
-46 28z"/>
<path d="M7440 3054 c0 -11 26 -46 60 -79 47 -46 60 -55 60 -39 0 11 -26 46
-60 79 -47 46 -60 55 -60 39z"/>
<path d="M1030 3034 c0 -18 96 -124 113 -124 20 0 1 32 -53 85 -47 46 -60 55
-60 39z"/>
<path d="M5350 3007 c17 -24 58 -70 92 -103 l60 -59 -51 71 c-47 65 -112 134
-126 134 -4 0 8 -19 25 -43z"/>
<path d="M6240 3024 c0 -11 26 -46 60 -79 47 -46 60 -55 60 -39 0 11 -26 46
-60 79 -47 46 -60 55 -60 39z"/>
<path d="M1560 3014 c0 -11 26 -46 60 -79 47 -46 60 -55 60 -39 0 11 -26 46
-60 79 -47 46 -60 55 -60 39z"/>
<path d="M2290 3012 c0 -10 27 -44 60 -77 78 -77 78 -49 0 32 -41 42 -60 57
-60 45z"/>
<path d="M160 3008 c0 -17 97 -128 112 -128 21 0 2 31 -52 85 -38 38 -60 53
-60 43z"/>
<path d="M2850 3007 c0 -19 21 -37 44 -37 18 0 18 1 -4 25 -26 28 -40 32 -40
12z"/>
<path d="M3936 3012 c-9 -15 28 -55 48 -51 15 3 13 8 -12 32 -16 16 -33 24
-36 19z"/>
<path d="M6710 3007 c0 -13 110 -127 123 -127 18 0 2 26 -50 81 -56 59 -73 70
-73 46z"/>
<path d="M8200 3004 c0 -26 111 -135 118 -115 2 7 -23 41 -57 75 -49 49 -61
57 -61 40z"/>
<path d="M4780 2984 c0 -11 26 -46 60 -79 47 -46 60 -55 60 -39 0 11 -26 46
-60 79 -47 46 -60 55 -60 39z"/>
<path d="M5980 2985 c0 -8 7 -15 16 -15 14 0 14 3 4 15 -7 8 -14 15 -16 15 -2
0 -4 -7 -4 -15z"/>
<path d="M7440 2984 c0 -11 26 -46 60 -79 47 -46 60 -55 60 -39 0 11 -26 46
-60 79 -47 46 -60 55 -60 39z"/>
<path d="M1020 2974 c0 -11 26 -46 60 -79 47 -46 60 -55 60 -39 0 11 -26 46
-60 79 -47 46 -60 55 -60 39z"/>
<path d="M6240 2946 c0 -10 27 -46 60 -79 47 -49 60 -58 60 -42 0 12 -25 46
-60 80 -43 42 -60 54 -60 41z"/>
<path d="M160 2934 c0 -18 96 -124 113 -124 20 0 1 32 -53 85 -47 46 -60 55
-60 39z"/>
<path d="M1560 2939 c0 -8 27 -41 60 -74 38 -37 60 -53 60 -43 0 15 -26 44
-94 107 -18 17 -26 20 -26 10z"/>
<path d="M2290 2934 c0 -18 96 -124 113 -124 20 0 1 32 -53 85 -47 46 -60 55
-60 39z"/>
<path d="M3010 2935 c0 -12 26 -43 60 -73 78 -69 78 -44 0 33 -46 45 -60 55
-60 40z"/>
<path d="M6710 2934 c0 -18 106 -134 123 -134 21 0 0 33 -58 90 -50 50 -65 60
-65 44z"/>
<path d="M8200 2934 c0 -11 26 -46 60 -79 47 -46 60 -55 60 -39 0 11 -26 46
-60 79 -47 46 -60 55 -60 39z"/>
<path d="M4090 2927 c0 -26 115 -144 124 -128 5 7 -18 38 -58 79 -47 48 -66
62 -66 49z"/>
<path d="M1010 2909 c0 -8 27 -41 60 -74 34 -33 60 -53 60 -44 0 8 -27 41 -60
74 -34 33 -60 53 -60 44z"/>
<path d="M4790 2904 c0 -11 26 -46 60 -79 47 -46 60 -55 60 -39 0 11 -26 46
-60 79 -47 46 -60 55 -60 39z"/>
<path d="M7440 2909 c0 -8 27 -41 60 -74 34 -33 60 -53 60 -44 0 8 -27 41 -60
74 -34 33 -60 53 -60 44z"/>
<path d="M6240 2874 c0 -11 26 -46 60 -79 47 -46 60 -55 60 -39 0 11 -26 46
-60 79 -47 46 -60 55 -60 39z"/>
<path d="M160 2864 c0 -21 88 -114 108 -114 22 0 12 15 -48 75 -47 47 -60 55
-60 39z"/>
<path d="M1560 2864 c0 -21 88 -114 108 -114 22 0 12 15 -48 75 -47 47 -60 55
-60 39z"/>
<path d="M2290 2864 c0 -11 26 -46 60 -79 47 -46 60 -55 60 -39 0 11 -26 46
-60 79 -47 46 -60 55 -60 39z"/>
<path d="M3010 2864 c0 -11 26 -46 60 -79 47 -46 60 -55 60 -39 0 11 -26 46
-60 79 -47 46 -60 55 -60 39z"/>
<path d="M6710 2857 c0 -13 110 -127 123 -127 18 0 2 26 -50 81 -56 59 -73 70
-73 46z"/>
<path d="M8200 2857 c0 -7 27 -39 60 -72 48 -47 60 -55 60 -39 0 12 -23 43
-54 72 -57 55 -66 60 -66 39z"/>
<path d="M995 2850 c-7 -12 100 -130 117 -130 21 0 2 31 -51 84 -39 39 -61 54
-66 46z"/>
<path d="M4090 2847 c0 -13 110 -127 123 -127 20 0 1 32 -51 83 -59 59 -72 66
-72 44z"/>
<path d="M7440 2834 c0 -11 26 -46 60 -79 47 -46 60 -55 60 -39 0 11 -26 46
-60 79 -47 46 -60 55 -60 39z"/>
<path d="M4790 2827 c0 -7 29 -42 65 -77 80 -79 87 -58 9 28 -55 61 -74 74
-74 49z"/>
<path d="M6240 2805 c0 -12 25 -45 60 -80 78 -77 78 -50 0 35 -45 50 -59 60
-60 45z"/>
<path d="M1560 2794 c0 -11 20 -40 45 -64 37 -36 45 -41 45 -24 0 11 -20 40
-45 64 -37 36 -45 41 -45 24z"/>
<path d="M2290 2792 c0 -10 27 -44 60 -77 78 -77 78 -49 0 32 -41 42 -60 57
-60 45z"/>
<path d="M2855 2800 c-10 -17 106 -133 119 -120 7 7 -9 30 -51 71 -41 42 -63
57 -68 49z"/>
<path d="M2910 2804 c0 -8 124 -124 133 -124 16 0 4 17 -50 72 -50 51 -83 71
-83 52z"/>
<path d="M2990 2802 c0 -17 118 -124 130 -117 8 5 -7 27 -46 66 -53 53 -84 72
-84 51z"/>
<path d="M5490 2807 c0 -20 33 -66 79 -112 38 -36 51 -45 51 -31 0 17 -129
160 -130 143z"/>
<path d="M6030 2775 c39 -40 40 -41 40 -20 0 20 -36 55 -57 55 -13 0 -8 -9 17
-35z"/>
<path d="M160 2789 c0 -8 20 -35 45 -59 27 -27 45 -38 45 -29 0 8 -20 35 -45
59 -27 27 -45 38 -45 29z"/>
<path d="M980 2787 c0 -13 110 -127 123 -127 20 0 1 32 -51 83 -59 59 -72 66
-72 44z"/>
<path d="M3935 2790 c-7 -12 100 -130 117 -130 21 0 2 31 -51 84 -39 39 -61
54 -66 46z"/>
<path d="M3990 2792 c0 -13 116 -122 129 -122 20 0 11 14 -46 72 -53 53 -83
71 -83 50z"/>
<path d="M4070 2792 c0 -13 116 -122 129 -122 22 0 10 18 -48 73 -56 53 -81
68 -81 49z"/>
<path d="M6710 2789 c0 -18 117 -135 126 -127 9 10 -6 29 -68 87 -32 30 -58
47 -58 40z"/>
<path d="M8200 2784 c0 -12 25 -45 60 -78 45 -43 60 -53 60 -39 0 10 -27 45
-60 78 -48 47 -60 55 -60 39z"/>
<path d="M5980 2764 c0 -18 67 -94 83 -94 19 0 3 30 -38 70 -37 36 -45 41 -45
24z"/>
<path d="M7440 2764 c0 -11 26 -46 60 -79 47 -46 60 -55 60 -39 0 11 -26 46
-60 79 -47 46 -60 55 -60 39z"/>
<path d="M4800 2744 c0 -11 26 -46 60 -79 47 -46 60 -55 60 -39 0 11 -26 46
-60 79 -47 46 -60 55 -60 39z"/>
<path d="M420 2737 c0 -12 108 -122 114 -116 3 2 2 9 -2 14 -16 22 -112 109
-112 102z"/>
<path d="M1830 2734 c0 -5 27 -36 60 -69 33 -33 60 -55 60 -49 0 5 -27 36 -60
69 -33 33 -60 55 -60 49z"/>
<path d="M2850 2727 c0 -7 27 -39 60 -72 47 -46 60 -55 60 -39 0 11 -24 43
-53 72 -54 54 -67 61 -67 39z"/>
<path d="M6240 2726 c0 -10 27 -46 60 -79 47 -49 60 -58 60 -42 0 12 -25 46
-60 80 -43 42 -60 54 -60 41z"/>
<path d="M160 2714 c0 -11 20 -40 45 -64 37 -36 45 -41 45 -24 0 11 -20 40
-45 64 -37 36 -45 41 -45 24z"/>
<path d="M980 2714 c0 -13 23 -41 60 -73 33 -29 60 -46 60 -39 0 8 -27 40 -60
73 -48 48 -60 55 -60 39z"/>
<path d="M1560 2719 c0 -8 20 -35 45 -59 27 -27 45 -38 45 -29 0 8 -20 35 -45
59 -27 27 -45 38 -45 29z"/>
<path d="M2290 2714 c0 -18 96 -124 113 -124 20 0 1 32 -53 85 -47 46 -60 55
-60 39z"/>
<path d="M3935 2721 c-5 -9 15 -35 59 -80 84 -84 91 -57 8 31 -42 43 -61 58
-67 49z"/>
<path d="M5270 2719 c0 -8 18 -33 40 -54 25 -24 40 -33 40 -24 0 8 -18 33 -40
54 -25 24 -40 33 -40 24z"/>
<path d="M6710 2714 c0 -18 106 -134 123 -134 21 0 0 33 -58 90 -50 50 -65 60
-65 44z"/>
<path d="M8200 2707 c0 -7 27 -39 60 -72 47 -46 60 -55 60 -39 0 11 -24 43
-53 72 -54 54 -67 61 -67 39z"/>
<path d="M5980 2694 c0 -18 67 -94 83 -94 19 0 3 30 -38 70 -37 36 -45 41 -45
24z"/>
<path d="M5520 2687 c0 -7 27 -39 60 -72 47 -46 60 -55 60 -39 0 11 -24 43
-53 72 -54 54 -67 61 -67 39z"/>
<path d="M7440 2684 c0 -26 111 -135 118 -115 2 7 -23 41 -57 75 -49 49 -61
57 -61 40z"/>
<path d="M420 2674 c0 -11 26 -46 60 -79 47 -46 60 -55 60 -39 0 11 -26 46
-60 79 -47 46 -60 55 -60 39z"/>
<path d="M1830 2669 c0 -8 27 -41 60 -74 33 -33 60 -53 60 -45 0 19 -5 25 -68
85 -31 29 -52 43 -52 34z"/>
<path d="M4810 2664 c0 -11 26 -46 60 -79 47 -46 60 -55 60 -39 0 11 -26 46
-60 79 -47 46 -60 55 -60 39z"/>
<path d="M2850 2653 c0 -24 112 -131 119 -112 2 6 -24 39 -58 73 -50 50 -61
57 -61 39z"/>
<path d="M6240 2654 c0 -11 26 -46 60 -79 47 -46 60 -55 60 -39 0 11 -26 46
-60 79 -47 46 -60 55 -60 39z"/>
<path d="M980 2644 c0 -11 26 -46 60 -79 47 -46 60 -55 60 -39 0 11 -26 46
-60 79 -47 46 -60 55 -60 39z"/>
<path d="M1560 2644 c0 -11 20 -40 45 -64 37 -36 45 -41 45 -24 0 11 -20 40
-45 64 -37 36 -45 41 -45 24z"/>
<path d="M2290 2645 c0 -12 25 -46 60 -80 81 -81 82 -45 0 38 -47 49 -60 58
-60 42z"/>
<path d="M5270 2644 c0 -26 75 -100 85 -84 5 8 -10 30 -39 58 -38 38 -46 43
-46 26z"/>
<path d="M160 2637 c0 -7 20 -33 45 -57 38 -38 45 -41 45 -23 0 11 -18 37 -40
57 -44 39 -50 42 -50 23z"/>
<path d="M3930 2639 c0 -13 109 -129 122 -129 21 0 3 30 -50 83 -58 57 -72 66
-72 46z"/>
<path d="M6710 2637 c0 -13 110 -127 123 -127 18 0 2 26 -50 81 -56 59 -73 70
-73 46z"/>
<path d="M7900 2641 c0 -5 5 -13 10 -16 6 -3 10 -2 10 4 0 5 -4 13 -10 16 -5
3 -10 2 -10 -4z"/>
<path d="M8200 2637 c0 -7 27 -39 60 -72 48 -47 60 -55 60 -39 0 12 -23 43
-54 72 -57 55 -66 60 -66 39z"/>
<path d="M5980 2619 c0 -8 20 -35 45 -59 27 -27 45 -38 45 -29 0 8 -20 35 -45
59 -27 27 -45 38 -45 29z"/>
<path d="M7440 2614 c0 -11 26 -46 60 -79 47 -46 60 -55 60 -39 0 11 -26 46
-60 79 -47 46 -60 55 -60 39z"/>
<path d="M5530 2604 c0 -13 22 -42 57 -74 79 -73 82 -44 4 34 -50 49 -61 57
-61 40z"/>
<path d="M420 2597 c0 -7 27 -39 60 -72 47 -46 60 -55 60 -39 0 11 -24 43 -53
72 -54 54 -67 61 -67 39z"/>
<path d="M1830 2594 c0 -18 96 -124 113 -124 20 0 1 32 -53 85 -47 46 -60 55
-60 39z"/>
<path d="M4810 2590 c0 -9 29 -45 65 -80 36 -35 65 -58 65 -51 0 7 -29 43 -65
80 -36 37 -65 59 -65 51z"/>
<path d="M1560 2574 c0 -11 20 -40 45 -64 37 -36 45 -41 45 -24 0 11 -20 40
-45 64 -37 36 -45 41 -45 24z"/>
<path d="M2850 2577 c0 -7 27 -39 60 -72 47 -46 60 -55 60 -39 0 11 -24 43
-53 72 -54 54 -67 61 -67 39z"/>
<path d="M5270 2574 c0 -26 75 -100 85 -84 5 8 -10 30 -39 58 -38 38 -46 43
-46 26z"/>
<path d="M6240 2577 c0 -7 27 -39 60 -72 74 -73 80 -52 8 28 -51 57 -68 68
-68 44z"/>
<path d="M160 2564 c0 -18 67 -94 83 -94 19 0 3 30 -38 70 -37 36 -45 41 -45
24z"/>
<path d="M980 2567 c0 -7 27 -39 60 -72 47 -46 60 -55 60 -39 0 11 -24 43 -53
72 -54 54 -67 61 -67 39z"/>
<path d="M2290 2564 c0 -26 111 -135 118 -115 2 7 -23 41 -57 75 -49 49 -61
57 -61 40z"/>
<path d="M3935 2570 c-7 -12 100 -130 117 -130 21 0 2 31 -51 84 -39 39 -61
54 -66 46z"/>
<path d="M6710 2566 c0 -17 106 -126 122 -126 22 0 5 23 -70 95 -39 37 -52 45
-52 31z"/>
<path d="M7900 2566 c0 -8 5 -18 10 -21 6 -3 10 3 10 14 0 12 -4 21 -10 21 -5
0 -10 -6 -10 -14z"/>
<path d="M8200 2564 c0 -11 26 -46 60 -79 47 -46 60 -55 60 -39 0 11 -26 46
-60 79 -47 46 -60 55 -60 39z"/>
<path d="M5980 2544 c0 -18 67 -94 83 -94 19 0 3 30 -38 70 -37 36 -45 41 -45
24z"/>
<path d="M5530 2534 c0 -18 96 -124 113 -124 20 0 1 32 -53 85 -47 46 -60 55
-60 39z"/>
<path d="M7440 2537 c0 -7 27 -39 60 -72 47 -46 60 -55 60 -39 0 11 -24 43
-53 72 -54 54 -67 61 -67 39z"/>
<path d="M420 2532 c0 -15 100 -132 112 -132 21 0 2 31 -52 85 -33 33 -60 54
-60 47z"/>
<path d="M1830 2524 c0 -11 26 -46 60 -79 47 -46 60 -55 60 -39 0 11 -26 46
-60 79 -47 46 -60 55 -60 39z"/>
<path d="M2850 2507 c0 -7 26 -39 59 -71 78 -77 91 -56 15 24 -57 60 -74 71
-74 47z"/>
<path d="M4610 2474 c34 -34 46 -41 48 -29 5 22 -46 75 -72 75 -17 0 -12 -8
24 -46z"/>
<path d="M4820 2504 c0 -11 26 -46 60 -79 47 -46 60 -55 60 -39 0 11 -26 46
-60 79 -47 46 -60 55 -60 39z"/>
<path d="M5270 2504 c0 -21 75 -102 86 -92 9 9 -10 39 -50 77 -31 30 -36 32
-36 15z"/>
<path d="M6240 2504 c0 -11 26 -46 60 -79 47 -46 60 -55 60 -39 0 11 -26 46
-60 79 -47 46 -60 55 -60 39z"/>
<path d="M160 2494 c0 -18 67 -94 83 -94 19 0 3 30 -38 70 -37 36 -45 41 -45
24z"/>
<path d="M980 2494 c0 -11 26 -46 60 -79 47 -46 60 -55 60 -39 0 11 -26 46
-60 79 -47 46 -60 55 -60 39z"/>
<path d="M1560 2499 c0 -8 20 -35 45 -59 27 -27 45 -38 45 -29 0 8 -20 35 -45
59 -27 27 -45 38 -45 29z"/>
<path d="M2290 2494 c0 -11 26 -46 60 -79 47 -46 60 -55 60 -39 0 11 -26 46
-60 79 -47 46 -60 55 -60 39z"/>
<path d="M3935 2501 c-5 -9 15 -35 59 -80 84 -84 91 -57 8 31 -42 43 -61 58
-67 49z"/>
<path d="M6710 2494 c0 -18 106 -134 123 -134 21 0 0 33 -58 90 -50 50 -65 60
-65 44z"/>
<path d="M7900 2497 c0 -8 7 -21 16 -28 14 -11 15 -10 12 11 -3 26 -28 41 -28
17z"/>
<path d="M8200 2494 c0 -11 26 -46 60 -79 47 -46 60 -55 60 -39 0 11 -26 46
-60 79 -47 46 -60 55 -60 39z"/>
<path d="M4550 2484 c0 -21 105 -132 116 -122 9 10 -11 40 -65 93 -41 40 -51
45 -51 29z"/>
<path d="M5980 2474 c0 -18 67 -94 83 -94 19 0 3 30 -38 70 -37 36 -45 41 -45
24z"/>
<path d="M5530 2464 c0 -11 26 -46 60 -79 47 -46 60 -55 60 -39 0 11 -26 46
-60 79 -47 46 -60 55 -60 39z"/>
<path d="M7440 2463 c0 -24 112 -131 119 -112 2 6 -24 39 -58 73 -50 50 -61
57 -61 39z"/>
<path d="M420 2454 c0 -11 26 -46 60 -79 47 -46 60 -55 60 -39 0 11 -26 46
-60 79 -47 46 -60 55 -60 39z"/>
<path d="M1830 2448 c0 -7 27 -40 60 -73 35 -35 60 -53 60 -44 0 14 -59 81
-104 118 -13 11 -16 11 -16 -1z"/>
<path d="M2850 2431 c0 -22 63 -81 87 -81 12 0 1 16 -32 50 -27 28 -51 50 -52
50 -2 0 -3 -9 -3 -19z"/>
<path d="M6240 2434 c0 -11 26 -46 60 -79 47 -46 60 -55 60 -39 0 11 -26 46
-60 79 -47 46 -60 55 -60 39z"/>
<path d="M980 2424 c0 -11 26 -46 60 -79 47 -46 60 -55 60 -39 0 11 -26 46
-60 79 -47 46 -60 55 -60 39z"/>
<path d="M1560 2424 c0 -22 48 -74 68 -74 21 0 13 15 -28 55 -34 33 -40 36
-40 19z"/>
<path d="M2290 2424 c0 -22 48 -74 68 -74 21 0 13 15 -28 55 -34 33 -40 36
-40 19z"/>
<path d="M4830 2424 c0 -11 26 -46 60 -79 47 -46 60 -55 60 -39 0 11 -26 46
-60 79 -47 46 -60 55 -60 39z"/>
<path d="M5270 2424 c0 -21 57 -71 68 -60 3 4 -11 23 -31 44 -32 32 -37 34
-37 16z"/>
<path d="M160 2418 c0 -14 50 -68 62 -68 15 0 8 18 -18 49 -27 32 -44 40 -44
19z"/>
<path d="M3930 2419 c0 -13 109 -129 122 -129 21 0 3 30 -50 83 -58 57 -72 66
-72 46z"/>
<path d="M4540 2418 c0 -22 113 -135 118 -118 3 7 -23 40 -57 74 -39 38 -61
55 -61 44z"/>
<path d="M6710 2417 c0 -13 110 -127 123 -127 18 0 2 26 -50 81 -56 59 -73 70
-73 46z"/>
<path d="M7900 2421 c0 -5 9 -19 20 -32 19 -23 19 -23 20 -3 0 20 -17 44 -32
44 -4 0 -8 -4 -8 -9z"/>
<path d="M8200 2417 c0 -7 27 -39 60 -72 75 -74 79 -51 6 28 -57 59 -66 66
-66 44z"/>
<path d="M5980 2399 c0 -8 20 -35 45 -59 27 -27 45 -38 45 -29 0 8 -20 35 -45
59 -27 27 -45 38 -45 29z"/>
<path d="M7440 2394 c0 -11 26 -46 60 -79 47 -46 60 -55 60 -39 0 11 -26 46
-60 79 -47 46 -60 55 -60 39z"/>
<path d="M5530 2391 c0 -13 95 -121 112 -129 5 -2 8 2 8 10 0 7 -27 40 -60 73
-33 33 -60 53 -60 46z"/>
<path d="M420 2377 c0 -7 27 -39 60 -72 73 -72 79 -55 9 26 -51 59 -69 71 -69
46z"/>
<path d="M1820 2377 c0 -21 117 -131 125 -117 5 7 -15 35 -51 71 -59 60 -74
69 -74 46z"/>
<path d="M2850 2360 c0 -5 5 -10 10 -10 6 0 10 5 10 10 0 6 -4 10 -10 10 -5 0
-10 -4 -10 -10z"/>
<path d="M6240 2359 c0 -8 27 -41 60 -74 34 -33 60 -53 60 -44 0 8 -27 41 -60
74 -34 33 -60 53 -60 44z"/>
<path d="M980 2347 c0 -7 27 -39 60 -72 74 -73 79 -51 6 28 -54 58 -66 67 -66
44z"/>
<path d="M3935 2351 c-5 -9 13 -34 51 -72 32 -32 62 -59 66 -59 20 0 3 27 -50
82 -41 43 -61 57 -67 49z"/>
<path d="M4535 2350 c-7 -12 100 -130 117 -130 21 0 2 31 -51 84 -39 39 -61
54 -66 46z"/>
<path d="M4830 2350 c0 -9 29 -45 65 -80 36 -35 65 -58 65 -51 0 7 -29 43 -65
80 -36 37 -65 59 -65 51z"/>
<path d="M6710 2347 c0 -27 111 -140 124 -127 7 7 -10 31 -57 78 -47 47 -67
61 -67 49z"/>
<path d="M7900 2347 c0 -8 11 -24 25 -37 24 -23 25 -23 25 -3 0 11 -8 27 -18
36 -22 20 -32 21 -32 4z"/>
<path d="M8200 2344 c0 -11 26 -46 60 -79 47 -46 60 -55 60 -39 0 11 -26 46
-60 79 -47 46 -60 55 -60 39z"/>
<path d="M2450 2334 c0 -11 26 -46 60 -79 47 -46 60 -55 60 -39 0 11 -26 46
-60 79 -47 46 -60 55 -60 39z"/>
<path d="M3010 2340 c0 -19 5 -25 68 -85 72 -68 66 -37 -8 38 -33 34 -60 55
-60 47z"/>
<path d="M5517 2327 c-5 -13 98 -127 116 -127 20 0 1 32 -52 84 -42 41 -60 54
-64 43z"/>
<path d="M5980 2324 c0 -18 67 -94 83 -94 19 0 3 30 -38 70 -37 36 -45 41 -45
24z"/>
<path d="M7430 2327 c0 -7 27 -39 60 -72 47 -46 60 -55 60 -39 0 11 -24 43
-53 72 -54 54 -67 61 -67 39z"/>
<path d="M405 2320 c-8 -13 91 -120 112 -120 23 0 14 15 -46 74 -39 39 -61 54
-66 46z"/>
<path d="M1810 2317 c0 -7 27 -39 60 -72 47 -46 60 -55 60 -39 0 11 -24 43
-53 72 -54 54 -67 61 -67 39z"/>
<path d="M6240 2284 c0 -11 26 -46 60 -79 47 -46 60 -55 60 -39 0 11 -26 46
-60 79 -47 46 -60 55 -60 39z"/>
<path d="M980 2275 c0 -12 26 -43 60 -73 78 -69 78 -44 0 33 -46 45 -60 55
-60 40z"/>
<path d="M4530 2277 c0 -7 27 -39 60 -72 47 -46 60 -55 60 -39 0 11 -24 43
-53 72 -54 54 -67 61 -67 39z"/>
<path d="M6710 2274 c0 -18 106 -134 123 -134 21 0 0 33 -58 90 -50 50 -65 60
-65 44z"/>
<path d="M385 2270 c-5 -8 15 -35 52 -72 44 -43 62 -56 66 -45 7 19 -108 134
-118 117z"/>
<path d="M1786 2271 c-7 -10 100 -121 117 -121 17 0 4 19 -52 74 -36 36 -61
54 -65 47z"/>
<path d="M3010 2264 c0 -11 26 -46 60 -79 47 -46 60 -55 60 -39 0 11 -26 46
-60 79 -47 46 -60 55 -60 39z"/>
<path d="M3937 2273 c-3 -5 23 -38 58 -73 36 -36 65 -58 65 -49 0 19 -116 134
-123 122z"/>
<path d="M4840 2264 c0 -11 26 -46 60 -79 47 -46 60 -55 60 -39 0 11 -26 46
-60 79 -47 46 -60 55 -60 39z"/>
<path d="M5496 2273 c-7 -7 102 -123 116 -123 21 0 3 30 -45 78 -54 54 -59 57
-71 45z"/>
<path d="M7410 2267 c0 -21 107 -120 120 -112 8 5 -7 27 -46 66 -59 60 -74 69
-74 46z"/>
<path d="M7900 2272 c0 -5 14 -21 30 -37 23 -22 30 -25 30 -12 0 9 -9 26 -20
37 -21 21 -40 26 -40 12z"/>
<path d="M8200 2267 c0 -7 27 -39 60 -72 47 -46 60 -55 60 -39 0 11 -24 43
-53 72 -54 54 -67 61 -67 39z"/>
<path d="M2450 2257 c0 -7 27 -39 60 -72 77 -76 84 -47 8 31 -53 55 -68 64
-68 41z"/>
<path d="M5980 2254 c0 -11 26 -46 60 -79 47 -46 60 -55 60 -39 0 11 -26 46
-60 79 -47 46 -60 55 -60 39z"/>
<path d="M346 2233 c-7 -7 102 -123 116 -123 4 0 7 6 7 13 -2 17 -114 119
-123 110z"/>
<path d="M1755 2230 c-8 -13 91 -120 112 -120 23 0 14 15 -46 74 -39 39 -61
54 -66 46z"/>
<path d="M5460 2226 c0 -19 108 -118 121 -110 7 4 -12 29 -47 65 -60 60 -74
69 -74 45z"/>
<path d="M7376 2232 c-8 -14 110 -125 124 -117 8 5 -7 27 -46 66 -59 59 -69
66 -78 51z"/>
<path d="M4520 2214 c0 -26 106 -132 120 -118 6 6 -12 31 -55 74 -50 50 -65
60 -65 44z"/>
<path d="M6240 2214 c0 -11 26 -46 60 -79 47 -46 60 -55 60 -39 0 11 -26 46
-60 79 -47 46 -60 55 -60 39z"/>
<path d="M980 2197 c0 -7 27 -39 60 -72 47 -46 60 -55 60 -39 0 11 -24 43 -53
72 -54 54 -67 61 -67 39z"/>
<path d="M1711 2203 c-9 -4 6 -25 45 -64 53 -53 84 -72 84 -51 0 16 -116 119
-129 115z"/>
<path d="M3007 2197 c-5 -13 98 -127 116 -127 20 0 1 32 -52 84 -42 41 -60 54
-64 43z"/>
<path d="M3935 2200 c-7 -12 100 -130 117 -130 21 0 2 31 -51 84 -39 39 -61
54 -66 46z"/>
<path d="M5253 2144 c37 -35 73 -64 79 -64 18 0 -102 118 -126 124 -13 3 4
-19 47 -60z"/>
<path d="M5421 2203 c-9 -4 6 -25 45 -64 53 -53 84 -72 84 -51 0 16 -116 119
-129 115z"/>
<path d="M6710 2197 c0 -13 110 -127 123 -127 18 0 2 26 -50 81 -56 59 -73 70
-73 46z"/>
<path d="M7110 2202 c0 -10 76 -83 110 -106 48 -32 44 -15 -10 37 -55 54 -100
85 -100 69z"/>
<path d="M7336 2202 c-8 -14 110 -125 124 -117 8 5 -9 27 -49 66 -62 62 -67
64 -75 51z"/>
<path d="M7900 2197 c0 -13 110 -127 123 -127 20 0 1 32 -51 83 -59 59 -72 66
-72 44z"/>
<path d="M8200 2199 c0 -8 27 -41 60 -74 34 -33 60 -53 60 -44 0 8 -27 41 -60
74 -34 33 -60 53 -60 44z"/>
<path d="M121 2164 c18 -20 48 -45 64 -56 19 -13 9 0 -25 35 -30 32 -59 57
-64 57 -6 0 6 -16 25 -36z"/>
<path d="M300 2192 c0 -13 104 -112 118 -112 22 0 13 15 -41 68 -48 48 -77 64
-77 44z"/>
<path d="M1550 2145 c30 -30 59 -55 64 -55 6 0 -14 25 -44 55 -30 30 -59 55
-64 55 -6 0 14 -25 44 -55z"/>
<path d="M2446 2191 c-7 -10 100 -121 117 -121 17 0 4 19 -52 74 -35 35 -61
54 -65 47z"/>
<path d="M840 2182 c0 -16 107 -112 125 -112 15 0 5 14 -40 60 -54 54 -85 73
-85 52z"/>
<path d="M965 2130 c55 -55 85 -73 85 -51 0 15 -111 111 -128 111 -10 0 5 -22
43 -60z"/>
<path d="M2150 2182 c0 -16 107 -112 125 -112 15 0 5 14 -40 60 -54 54 -85 73
-85 52z"/>
<path d="M2220 2181 c0 -15 109 -111 127 -111 12 0 -1 18 -42 60 -54 55 -85
73 -85 51z"/>
<path d="M2345 2130 c54 -54 85 -73 85 -52 0 16 -107 112 -125 112 -15 0 -5
-14 40 -60z"/>
<path d="M2370 2182 c0 -16 107 -112 125 -112 15 0 5 14 -40 60 -54 54 -85 73
-85 52z"/>
<path d="M2710 2183 c0 -13 115 -112 130 -113 8 0 -12 27 -45 60 -53 53 -85
73 -85 53z"/>
<path d="M2835 2130 c54 -54 85 -73 85 -52 0 16 -107 112 -125 112 -15 0 -5
-14 40 -60z"/>
<path d="M2905 2130 c33 -34 68 -60 79 -60 16 0 7 13 -39 60 -33 34 -68 60
-79 60 -16 0 -7 -13 39 -60z"/>
<path d="M2930 2186 c0 -2 26 -29 58 -60 77 -75 102 -72 27 4 -50 50 -85 74
-85 56z"/>
<path d="M3845 2130 c33 -33 66 -60 74 -60 9 0 -11 26 -44 60 -33 33 -66 60
-74 60 -9 0 11 -26 44 -60z"/>
<path d="M3915 2130 c33 -34 68 -60 79 -60 16 0 7 13 -39 60 -33 34 -68 60
-79 60 -16 0 -7 -13 39 -60z"/>
<path d="M4445 2130 c54 -55 85 -73 85 -51 0 15 -109 111 -127 111 -12 0 1
-18 42 -60z"/>
<path d="M4515 2130 c33 -34 68 -60 79 -60 16 0 7 13 -39 60 -33 34 -68 60
-79 60 -16 0 -7 -13 39 -60z"/>
<path d="M4690 2182 c0 -16 107 -112 125 -112 15 0 5 14 -40 60 -54 54 -85 73
-85 52z"/>
<path d="M4760 2184 c0 -12 116 -114 130 -114 8 0 -12 27 -45 60 -52 52 -85
73 -85 54z"/>
<path d="M4885 2130 c54 -54 85 -73 85 -52 0 16 -107 112 -125 112 -15 0 -5
-14 40 -60z"/>
<path d="M5366 2183 c-8 -9 104 -123 121 -123 23 0 14 15 -45 73 -59 59 -64
62 -76 50z"/>
<path d="M5820 2182 c0 -16 107 -112 125 -112 15 0 5 14 -40 60 -54 54 -85 73
-85 52z"/>
<path d="M5890 2182 c0 -16 107 -112 125 -112 15 0 5 14 -40 60 -54 54 -85 73
-85 52z"/>
<path d="M5960 2186 c0 -2 26 -29 58 -60 77 -75 102 -72 27 4 -50 50 -85 74
-85 56z"/>
<path d="M6110 2182 c0 -16 107 -112 125 -112 15 0 5 14 -40 60 -54 54 -85 73
-85 52z"/>
<path d="M6235 2130 c33 -33 66 -60 74 -60 9 0 -11 26 -44 60 -33 33 -66 60
-74 60 -9 0 11 -26 44 -60z"/>
<path d="M6570 2182 c0 -16 107 -112 125 -112 15 0 5 14 -40 60 -54 54 -85 73
-85 52z"/>
<path d="M6640 2181 c0 -14 113 -111 130 -111 8 0 -12 27 -45 60 -55 55 -85
73 -85 51z"/>
<path d="M7285 2180 c-10 -17 97 -123 119 -119 12 3 0 20 -47 68 -44 43 -67
59 -72 51z"/>
<path d="M7815 2130 c33 -33 66 -60 74 -60 9 0 -11 26 -44 60 -33 33 -66 60
-74 60 -9 0 11 -26 44 -60z"/>
<path d="M7885 2130 c33 -34 68 -60 79 -60 16 0 7 13 -39 60 -33 34 -68 60
-79 60 -16 0 -7 -13 39 -60z"/>
<path d="M8035 2130 c33 -33 66 -60 74 -60 9 0 -11 26 -44 60 -33 33 -66 60
-74 60 -9 0 11 -26 44 -60z"/>
<path d="M8105 2130 c33 -34 68 -60 79 -60 16 0 7 13 -39 60 -33 34 -68 60
-79 60 -16 0 -7 -13 39 -60z"/>
<path d="M8130 2182 c0 -16 107 -112 125 -112 15 0 5 14 -40 60 -54 54 -85 73
-85 52z"/>
<path d="M220 2124 c56 -56 90 -82 90 -66 0 15 -112 122 -128 122 -10 0 4 -21
38 -56z"/>
<path d="M295 2120 c54 -54 85 -73 85 -52 0 16 -107 112 -125 112 -15 0 -5
-14 40 -60z"/>
<path d="M1624 2121 c53 -53 96 -81 96 -62 0 16 -117 121 -135 121 -15 0 -5
-14 39 -59z"/>
<path d="M1705 2120 c33 -33 66 -60 74 -60 9 0 -11 26 -44 60 -33 33 -66 60
-74 60 -9 0 11 -26 44 -60z"/>
<path d="M5290 2174 c0 -13 115 -113 130 -114 8 0 -12 27 -45 60 -52 53 -85
73 -85 54z"/>
<path d="M7210 2173 c0 -13 114 -123 127 -123 24 0 13 17 -46 73 -55 52 -81
68 -81 50z"/>
<path d="M1450 1916 c0 -4 311 -541 603 -1044 70 -119 4 -74 592 -412 204
-118 461 -267 573 -332 l203 -118 746 0 747 0 290 169 c305 177 594 343 860
495 l158 91 165 285 c91 157 241 417 334 578 l168 292 -217 0 -217 -1 -254
-443 c-252 -439 -255 -444 -305 -473 -640 -370 -1027 -593 -1053 -606 -29 -15
-97 -17 -680 -17 l-648 0 -553 319 c-304 176 -560 325 -567 331 -8 7 -128 210
-266 451 l-252 439 -214 0 c-117 0 -213 -2 -213 -4z"/>
<path d="M2337 1872 c15 -26 95 -163 176 -303 l149 -255 231 -134 c128 -73
340 -197 472 -274 l240 -141 553 -3 554 -2 456 261 c252 144 469 270 483 281
17 11 94 134 198 313 94 162 171 297 171 300 0 3 -96 5 -213 5 l-213 0 -95
-167 -96 -168 -389 -227 -389 -226 -454 -1 -455 -1 -391 226 -391 225 -96 167
-95 167 -217 3 -217 2 28 -48z"/>
</g>
</svg>
