<svg width="27" height="16" viewBox="0 0 27 16" fill="none" xmlns="http://www.w3.org/2000/svg">
    <path d="M0 1C0 0.447715 0.447715 0 1 0H26C26.5523 0 27 0.447715 27 1V1.6875C27 2.23978 26.5523 2.6875 26 2.6875H0.999999C0.447715 2.6875 0 2.23978 0 1.6875V1ZM0.999999 9.3125C0.447715 9.3125 0 8.86479 0 8.3125V7.6875C0 7.13522 0.447715 6.6875 1 6.6875H26C26.5523 6.6875 27 7.13522 27 7.6875V8.3125C27 8.86479 26.5523 9.3125 26 9.3125H0.999999ZM0.999999 16C0.447715 16 0 15.5523 0 15V14.3125C0 13.7602 0.447715 13.3125 1 13.3125H26C26.5523 13.3125 27 13.7602 27 14.3125V15C27 15.5523 26.5523 16 26 16H0.999999Z" fill="#8c3839"/>
</svg>
